# xmcd
#
# Track frame offsets:
#	150
#	13058
#	28372
#	43887
#	69112
#	89348
#	108123
#	122942
#	139100
#	157253
#
# Disc length: 2524 seconds
#
# Revision: 0
# Processed by: cddbd v1.5.2PL0 Copyright (c) Steve Scherf et al.
# Submitted via: EasyCDDAExtractor 12.0.4.1
#
DISCID=8a09da0a
DTITLE=Obscenity - Where Sinners Bleed
DYEAR=1900
DGENRE=Death Metal
TTITLE0=Obsessed with Slavery
TTITLE1=Die Again
TTITLE2=Mutate to Scourge - Infecdead
TTITLE3=Incomplete
TTITLE4=Out of the Tombs
TTITLE5=Cannibalistic Intent
TTITLE6=Where Sinners Bleed
TTITLE7=Return to Flesh
TTITLE8=Non-Existence
TTITLE9=Bullet That Kills
EXTD=
EXTT0=
EXTT1=
EXTT2=
EXTT3=
EXTT4=
EXTT5=
EXTT6=
EXTT7=
EXTT8=
EXTT9=
PLAYORDER=
